<svg xmlns="http://www.w3.org/2000/svg" viewBox="0 0 128 128" role="img" aria-label="standl icon">
  <defs>
    <linearGradient id="funnel" x1="0" y1="0" x2="0" y2="1">
      <stop offset="0" stop-color="#5B6DD6"/>
      <stop offset="1" stop-color="#2D3A8C"/>
    </linearGradient>
    <linearGradient id="cell" x1="0" y1="0" x2="0" y2="1">
      <stop offset="0" stop-color="#F6AD55"/>
      <stop offset="1" stop-color="#ED8936"/>
    </linearGradient>
  </defs>

  <rect width="128" height="128" rx="22" fill="#F7FAFC"/>

  <g transform="translate(14,14)">
    <rect x="2"  y="8"  width="28" height="28" rx="6" fill="#38B2AC" opacity="0.95"/>
    <rect x="42" y="0"  width="32" height="32" rx="6" fill="#4FD1C5"/>
    <rect x="86" y="8"  width="28" height="28" rx="6" fill="#38B2AC" opacity="0.95"/>

    <circle cx="10" cy="18" r="2" fill="#0F3B3A"/>
    <circle cx="20" cy="18" r="2" fill="#0F3B3A"/>
    <circle cx="10" cy="28" r="2" fill="#0F3B3A"/>
    <circle cx="20" cy="28" r="2" fill="#0F3B3A"/>
    <circle cx="50" cy="10" r="2.2" fill="#1A3A3A"/>
    <circle cx="62" cy="10" r="2.2" fill="#1A3A3A"/>
    <circle cx="50" cy="22" r="2.2" fill="#1A3A3A"/>
    <circle cx="62" cy="22" r="2.2" fill="#1A3A3A"/>
    <circle cx="94"  cy="18" r="2" fill="#0F3B3A"/>
    <circle cx="104" cy="18" r="2" fill="#0F3B3A"/>
    <circle cx="94"  cy="28" r="2" fill="#0F3B3A"/>
    <circle cx="104" cy="28" r="2" fill="#0F3B3A"/>

    <path d="M -2 46 L 118 46 L 78 88 L 38 88 Z" fill="url(#funnel)"/>
    <rect x="52" y="88" width="14" height="8" fill="#2D3A8C"/>

    <circle cx="59" cy="108" r="12" fill="url(#cell)"/>
    <circle cx="54" cy="104" r="3"   fill="#C05621"/>
    <circle cx="63" cy="110" r="2.2" fill="#C05621"/>
    <circle cx="56" cy="112" r="1.8" fill="#C05621"/>
  </g>
</svg>
